<svg width="40" height="40" viewBox="0 0 40 40" fill="none" xmlns="http://www.w3.org/2000/svg">
<rect x="0.5" y="0.5" width="39" height="39" rx="19.5" stroke="#A6A9BD"/>
<path d="M25 11H15C13.9391 11 12.9217 11.4214 12.1716 12.1716C11.4214 12.9217 11 13.9391 11 15V25C11 26.0609 11.4214 27.0783 12.1716 27.8284C12.9217 28.5786 13.9391 29 15 29H25C26.0609 29 27.0783 28.5786 27.8284 27.8284C28.5786 27.0783 29 26.0609 29 25V15C29 13.9391 28.5786 12.9217 27.8284 12.1716C27.0783 11.4214 26.0609 11 25 11Z" stroke="#A6A9BD" stroke-width="1.5" stroke-linejoin="round"/>
<path d="M20 24C21.0609 24 22.0783 23.5786 22.8284 22.8284C23.5786 22.0783 24 21.0609 24 20C24 18.9391 23.5786 17.9217 22.8284 17.1716C22.0783 16.4214 21.0609 16 20 16C18.9391 16 17.9217 16.4214 17.1716 17.1716C16.4214 17.9217 16 18.9391 16 20C16 21.0609 16.4214 22.0783 17.1716 22.8284C17.9217 23.5786 18.9391 24 20 24V24Z" stroke="#A6A9BD" stroke-width="1.5" stroke-linejoin="round"/>
<path d="M25.5 15.5C25.7652 15.5 26.0196 15.3946 26.2071 15.2071C26.3946 15.0196 26.5 14.7652 26.5 14.5C26.5 14.2348 26.3946 13.9804 26.2071 13.7929C26.0196 13.6054 25.7652 13.5 25.5 13.5C25.2348 13.5 24.9804 13.6054 24.7929 13.7929C24.6054 13.9804 24.5 14.2348 24.5 14.5C24.5 14.7652 24.6054 15.0196 24.7929 15.2071C24.9804 15.3946 25.2348 15.5 25.5 15.5Z" fill="#A6A9BD"/>
</svg>
