<svg width="40" height="40" viewBox="0 0 40 40" fill="none" xmlns="http://www.w3.org/2000/svg">
<rect x="0.5" y="0.5" width="39" height="39" rx="19.5" stroke="#A6A9BD"/>
<path d="M20.75 18H25.25L24.75 20H20.75V29H18.75V20H14.75V18H18.75V16.128C18.75 14.345 18.936 13.698 19.284 13.046C19.625 12.4018 20.1518 11.875 20.796 11.534C21.448 11.186 22.095 11 23.878 11C24.4 11 24.858 11.05 25.25 11.15V13H23.878C22.554 13 22.151 13.078 21.74 13.298C21.436 13.46 21.21 13.686 21.048 13.99C20.828 14.401 20.75 14.804 20.75 16.128V18Z" fill="#A6A9BD"/>
</svg>
