<svg width="40" height="40" viewBox="0 0 40 40" fill="none" xmlns="http://www.w3.org/2000/svg">
<rect x="0.5" y="0.5" width="39" height="39" rx="19.5" stroke="#A6A9BD"/>
<g clip-path="url(#clip0_74_1716)">
<path d="M20.905 16.8465L20.905 16.8465C20.9194 16.0603 21.2418 15.3113 21.8028 14.7605C22.3639 14.2097 23.1188 13.9012 23.905 13.9013L20.905 16.8465ZM20.905 16.8465L20.877 18.4213M20.905 16.8465L20.877 18.4213M12.7581 15.8086L12.89 15.9185C14.7668 17.4821 16.7178 18.4182 18.7495 18.6952C18.7495 18.6952 18.7495 18.6952 18.7495 18.6952L20.3104 18.9072L12.7581 15.8086ZM12.7581 15.8086L12.7276 15.9775M12.7581 15.8086L12.7276 15.9775M12.7276 15.9775C12.4258 17.6482 12.5683 19.0709 13.1479 20.3018C13.7272 21.532 14.7383 22.5605 16.1558 23.4519L16.1558 23.452M12.7276 15.9775L16.1558 23.452M16.1558 23.452L17.9028 24.55L17.954 24.4685M16.1558 23.452L17.954 24.4685M17.954 24.4685L17.9028 24.55C17.972 24.5934 18.0294 24.6532 18.0702 24.724C18.1109 24.7948 18.1337 24.8745 18.1365 24.9562C18.1392 25.0378 18.122 25.1189 18.0862 25.1924C18.0504 25.2658 17.9972 25.3294 17.9311 25.3775L17.931 25.3775M17.954 24.4685L17.931 25.3775M17.931 25.3775L16.339 26.5405L16.1154 26.7039M17.931 25.3775L16.1154 26.7039M16.1154 26.7039L16.3918 26.7211M16.1154 26.7039L16.3918 26.7211M16.3918 26.7211C17.3449 26.7805 18.2529 26.7385 19.0095 26.5884L19.0096 26.5884M16.3918 26.7211L19.0096 26.5884M19.0096 26.5884C21.3886 26.1134 23.3745 24.9794 24.7652 23.2211M19.0096 26.5884L24.7652 23.2211M20.877 18.4213C20.8757 18.4918 20.8594 18.5612 20.8293 18.625C20.7993 18.6887 20.7561 18.7454 20.7026 18.7912C20.649 18.8371 20.5864 18.8712 20.5188 18.8911C20.4513 18.9111 20.3803 18.9166 20.3105 18.9072L20.877 18.4213ZM24.7652 23.2211C26.1557 21.463 26.945 19.0883 26.945 16.1423M24.7652 23.2211L26.945 16.1423M26.945 16.1423C26.945 15.9967 26.8714 15.7847 26.744 15.5572M26.945 16.1423L26.744 15.5572M26.744 15.5572C26.6142 15.3256 26.4215 15.0651 26.1673 14.8205M26.744 15.5572L26.1673 14.8205M26.1673 14.8205C25.6587 14.3309 24.8999 13.9013 23.905 13.9013L26.1673 14.8205ZM28.4978 13.5384C28.8818 13.4839 29.3285 13.3435 29.916 13.0111C29.6101 14.4953 29.4321 15.1676 28.7642 16.0834L28.745 16.1097V16.1423C28.745 19.9415 27.578 22.7567 25.8258 24.7397C24.0726 26.7238 21.7277 27.8813 19.3624 28.3532C17.7453 28.6759 15.7544 28.5728 13.9964 28.2106C13.1181 28.0296 12.3008 27.7846 11.6198 27.4974C11.0373 27.2517 10.5601 26.9775 10.2296 26.6904C10.6606 26.6482 11.4114 26.5535 12.2437 26.3598C13.2435 26.1272 14.3717 25.7494 15.2031 25.141L15.3192 25.056L15.199 24.9768C15.1572 24.9492 15.1118 24.9196 15.063 24.8879C14.3048 24.3938 12.7465 23.3786 11.7316 21.5166C10.6671 19.5637 10.1926 16.663 11.9136 12.4259C13.5789 14.3435 15.2726 15.66 16.995 16.3668L16.995 16.3668C17.5766 16.6054 17.9426 16.7237 18.2318 16.7914C18.4509 16.8426 18.6261 16.8646 18.8117 16.8879C18.8703 16.8953 18.93 16.9028 18.9924 16.9114L19.2872 16.9519L19.1059 16.7708C19.131 15.8414 19.4254 14.939 19.9539 14.1733C20.4904 13.3961 21.2442 12.7943 22.1211 12.4435C22.9979 12.0927 23.9588 12.0083 24.8833 12.2009C25.8079 12.3936 26.6551 12.8547 27.3189 13.5266L27.3485 13.5566L27.3907 13.5563C27.4934 13.5556 27.5972 13.5591 27.7036 13.5627C27.9483 13.571 28.2068 13.5797 28.4978 13.5384Z" fill="#A6A9BD" stroke="#A6A9BD" stroke-width="0.2"/>
</g>
<defs>
<clipPath id="clip0_74_1716">
<rect width="24" height="24" fill="white" transform="translate(8 8)"/>
</clipPath>
</defs>
</svg>
