<svg width="24" height="24" viewBox="0 0 24 24" fill="none" xmlns="http://www.w3.org/2000/svg">
<path d="M3.22593 15.0282L7.65468 13.0435C7.85534 12.9575 8.07428 12.9229 8.29167 12.9429C8.50906 12.9629 8.71804 13.0368 8.89968 13.1579C8.91811 13.1697 8.93566 13.1829 8.95218 13.1972L11.2669 15.166C11.2909 15.1791 11.3176 15.1864 11.345 15.1874C11.3723 15.1884 11.3995 15.183 11.4244 15.1716C12.9122 14.4535 14.4534 12.9216 15.1744 11.4544C15.1864 11.4299 15.1926 11.403 15.1926 11.3757C15.1926 11.3484 15.1864 11.3214 15.1744 11.2969L13.1991 8.95318C13.1849 8.93584 13.1717 8.91768 13.1597 8.8988C13.0402 8.71646 12.9681 8.50725 12.9498 8.29006C12.9315 8.07286 12.9675 7.85452 13.0547 7.65474L15.0253 3.23349C15.1372 2.9725 15.3308 2.75484 15.5769 2.61319C15.823 2.47154 16.1084 2.41353 16.3903 2.44787C17.6154 2.60893 18.7399 3.21056 19.5538 4.14034C20.3676 5.07011 20.8151 6.26441 20.8125 7.50005C20.8125 14.8407 14.8406 20.8126 7.49999 20.8126C6.2644 20.8149 5.07021 20.3674 4.14048 19.5536C3.21074 18.7398 2.60905 17.6154 2.4478 16.3904C2.41353 16.1098 2.47075 15.8257 2.61095 15.5802C2.75115 15.3348 2.96684 15.1412 3.22593 15.0282ZM7.49999 19.6876C14.22 19.6876 19.6875 14.2201 19.6875 7.50005C19.6906 6.53811 19.3434 5.60793 18.7108 4.88331C18.0781 4.15869 17.2032 3.6892 16.2497 3.56255H16.2281C16.1903 3.56326 16.1536 3.57536 16.1229 3.59728C16.0921 3.61919 16.0686 3.6499 16.0556 3.68537L14.0775 8.10193C14.0662 8.12648 14.0604 8.15319 14.0604 8.18021C14.0604 8.20723 14.0662 8.23394 14.0775 8.25849L16.0566 10.6079C16.0713 10.6246 16.0848 10.6425 16.0969 10.6613C16.2207 10.8504 16.2936 11.0682 16.3086 11.2937C16.3235 11.5192 16.28 11.7447 16.1822 11.9485C15.3506 13.651 13.635 15.3535 11.9137 16.1851C11.7088 16.2823 11.4822 16.3248 11.2559 16.3084C11.0297 16.2919 10.8115 16.2172 10.6228 16.0913C10.605 16.0791 10.5872 16.066 10.5703 16.0519L8.25655 14.0832C8.2337 14.0709 8.20847 14.0637 8.18258 14.0621C8.15669 14.0605 8.13075 14.0645 8.10655 14.0738L3.67686 16.0585C3.64068 16.0739 3.61026 16.1003 3.5899 16.1339C3.56954 16.1676 3.56028 16.2068 3.56343 16.246C3.6894 17.2 4.15846 18.0755 4.88292 18.7089C5.60739 19.3422 6.5377 19.6901 7.49999 19.6876Z" fill="white"/>
</svg>
