<svg width="524" height="40" viewBox="0 0 524 40" fill="none" xmlns="http://www.w3.org/2000/svg">
<rect width="524" height="40" rx="20" fill="white"/>
<rect x="0.5" y="0.5" width="523" height="39" rx="19.5" stroke="#8B929A" stroke-opacity="0.21"/>
<path d="M463.32 27.68C464.347 27.68 465.147 27.3867 465.72 26.8C466.307 26.2133 466.6 25.4 466.6 24.36V18.36H468.68V21.44C468.68 21.9067 468.807 22.26 469.06 22.5C469.314 22.7267 469.694 22.84 470.2 22.84H470.48C470.614 22.84 470.68 23.2133 470.68 23.96C470.68 24.6533 470.614 25 470.48 25H470.2C469.88 25 469.58 24.9533 469.3 24.86C469.02 24.7533 468.814 24.6133 468.68 24.44V24.56C468.64 25.6 468.4 26.52 467.96 27.32C467.52 28.12 466.9 28.74 466.1 29.18C465.314 29.62 464.394 29.84 463.34 29.84H462.76L462.58 27.68H463.32ZM474.736 22.84C475.149 22.84 475.482 22.7333 475.736 22.52C475.989 22.2933 476.116 21.98 476.116 21.58V18.36H478.196V21.64C478.196 22.6933 477.882 23.52 477.256 24.12C476.629 24.7067 475.789 25 474.736 25H469.876C469.742 25 469.676 24.6533 469.676 23.96C469.676 23.52 469.696 23.2267 469.736 23.08C469.776 22.92 469.822 22.84 469.876 22.84H474.736ZM472.696 29.26V27.34H475.516V29.26H472.696ZM470.076 29.26V27.34H472.896V29.26H470.076ZM484.62 22.84C484.687 22.84 484.734 22.9133 484.76 23.06C484.8 23.2067 484.82 23.5067 484.82 23.96C484.82 24.4 484.8 24.6867 484.76 24.82C484.734 24.94 484.687 25 484.62 25H484.02C482.954 25 482.147 24.6867 481.6 24.06C481.054 23.4333 480.78 22.5467 480.78 21.4V12.08H482.84V21.26C482.84 21.7933 482.947 22.1933 483.16 22.46C483.374 22.7133 483.7 22.84 484.14 22.84H484.62ZM489.527 21.64C489.527 22.6933 489.214 23.52 488.587 24.12C487.961 24.7067 487.121 25 486.067 25H484.027C483.894 25 483.827 24.6533 483.827 23.96C483.827 23.52 483.847 23.2267 483.887 23.08C483.927 22.92 483.974 22.84 484.027 22.84H486.067C486.481 22.84 486.814 22.7333 487.067 22.52C487.321 22.2933 487.447 21.98 487.447 21.58V18.36H489.527V21.64ZM487.247 16.08V14.16H490.067V16.08H487.247ZM484.627 16.08V14.16H487.447V16.08H484.627Z" fill="#3E4151"/>
<path d="M326.661 24C326.133 24 325.701 23.898 325.365 23.694C325.041 23.49 324.795 23.172 324.627 22.74C324.423 23.16 324.087 23.478 323.619 23.694C323.163 23.898 322.605 24 321.945 24C320.925 24 320.151 23.754 319.623 23.262C319.095 22.758 318.831 22.068 318.831 21.192V19.95C318.831 19.506 318.891 19.134 319.011 18.834C319.143 18.522 319.353 18.246 319.641 18.006H318.687C317.859 18.006 317.205 18.228 316.725 18.672C316.257 19.104 316.023 19.704 316.023 20.472V28.446H315.033V20.472C315.033 19.788 315.183 19.188 315.483 18.672C315.795 18.144 316.233 17.742 316.797 17.466C317.361 17.178 318.021 17.034 318.777 17.034H322.323C323.223 17.034 323.919 17.274 324.411 17.754C324.903 18.222 325.149 18.864 325.149 19.68V21.138C325.149 21.75 325.275 22.212 325.527 22.524C325.779 22.836 326.157 22.992 326.661 22.992H327.075C327.195 22.992 327.255 23.166 327.255 23.514C327.255 23.838 327.195 24 327.075 24H326.661ZM321.963 22.992C322.671 22.992 323.217 22.842 323.601 22.542C323.985 22.23 324.177 21.774 324.177 21.174V19.788C324.177 19.248 324.009 18.816 323.673 18.492C323.337 18.168 322.887 18.006 322.323 18.006H321.567C321.003 18.006 320.565 18.174 320.253 18.51C319.953 18.846 319.803 19.296 319.803 19.86V21.012C319.803 21.672 319.989 22.17 320.361 22.506C320.733 22.83 321.267 22.992 321.963 22.992ZM328.692 22.992C329.268 22.992 329.724 22.848 330.06 22.56C330.396 22.272 330.564 21.888 330.564 21.408V18.474H331.536V21.39C331.536 21.906 331.686 22.302 331.986 22.578C332.286 22.854 332.718 22.992 333.282 22.992H333.606C333.726 22.992 333.786 23.16 333.786 23.496C333.786 23.832 333.726 24 333.606 24H333.246C332.682 24 332.208 23.904 331.824 23.712C331.452 23.508 331.182 23.208 331.014 22.812C330.81 23.208 330.504 23.508 330.096 23.712C329.7 23.904 329.232 24 328.692 24H326.532C326.412 24 326.352 23.838 326.352 23.514C326.352 23.31 326.37 23.172 326.406 23.1C326.442 23.028 326.484 22.992 326.532 22.992H328.692ZM329.808 16.17V15.18H332.148V16.17H329.808ZM327.648 16.17V15.18H329.988V16.17H327.648ZM334.426 22.992C335.038 22.992 335.512 22.848 335.848 22.56C336.196 22.26 336.37 21.864 336.37 21.372V18.474H337.36V21.372C337.36 21.888 337.51 22.29 337.81 22.578C338.122 22.854 338.572 22.992 339.16 22.992C339.772 22.992 340.246 22.848 340.582 22.56C340.93 22.26 341.104 21.864 341.104 21.372V18.474H342.076V21.372C342.076 21.888 342.226 22.29 342.526 22.578C342.826 22.854 343.252 22.992 343.804 22.992C344.344 22.992 344.776 22.848 345.1 22.56C345.424 22.26 345.586 21.864 345.586 21.372V18.474H346.558V21.372C346.558 21.9 346.702 22.302 346.99 22.578C347.29 22.854 347.704 22.992 348.232 22.992H348.628C348.76 22.992 348.826 23.166 348.826 23.514C348.826 23.838 348.76 24 348.628 24H348.232C347.68 24 347.212 23.904 346.828 23.712C346.456 23.508 346.186 23.208 346.018 22.812C345.814 23.208 345.52 23.508 345.136 23.712C344.764 23.904 344.32 24 343.804 24C343.228 24 342.748 23.898 342.364 23.694C341.98 23.478 341.704 23.178 341.536 22.794C341.332 23.178 341.02 23.478 340.6 23.694C340.192 23.898 339.712 24 339.16 24C338.548 24 338.044 23.898 337.648 23.694C337.252 23.478 336.976 23.178 336.82 22.794C336.604 23.178 336.292 23.478 335.884 23.694C335.476 23.898 334.99 24 334.426 24H333.058C332.938 24 332.878 23.838 332.878 23.514C332.878 23.31 332.896 23.172 332.932 23.1C332.968 23.028 333.01 22.992 333.058 22.992H334.426ZM350.253 22.992C350.829 22.992 351.285 22.848 351.621 22.56C351.957 22.272 352.125 21.888 352.125 21.408V18.474H353.097V21.39C353.097 21.906 353.247 22.302 353.547 22.578C353.847 22.854 354.279 22.992 354.843 22.992H355.167C355.287 22.992 355.347 23.16 355.347 23.496C355.347 23.832 355.287 24 355.167 24H354.807C354.243 24 353.769 23.904 353.385 23.712C353.013 23.508 352.743 23.208 352.575 22.812C352.371 23.208 352.065 23.508 351.657 23.712C351.261 23.904 350.793 24 350.253 24H348.093C347.973 24 347.913 23.838 347.913 23.514C347.913 23.31 347.931 23.172 347.967 23.1C348.003 23.028 348.045 22.992 348.093 22.992H350.253ZM349.389 27.492V26.502H351.729V27.492H349.389ZM347.229 27.492V26.502H349.569V27.492H347.229ZM355.987 22.992C356.599 22.992 357.073 22.848 357.409 22.56C357.757 22.26 357.931 21.864 357.931 21.372V18.474H358.921V21.372C358.921 21.888 359.071 22.29 359.371 22.578C359.683 22.854 360.133 22.992 360.721 22.992C361.333 22.992 361.807 22.848 362.143 22.56C362.491 22.26 362.665 21.864 362.665 21.372V18.474H363.637V21.372C363.637 21.888 363.787 22.29 364.087 22.578C364.387 22.854 364.813 22.992 365.365 22.992C365.917 22.992 366.349 22.854 366.661 22.578C366.985 22.29 367.147 21.888 367.147 21.372V18.474H368.119V21.3C368.119 22.14 367.867 22.8 367.363 23.28C366.859 23.76 366.193 24 365.365 24C364.789 24 364.309 23.898 363.925 23.694C363.541 23.478 363.265 23.178 363.097 22.794C362.893 23.178 362.581 23.478 362.161 23.694C361.753 23.898 361.273 24 360.721 24C360.109 24 359.605 23.898 359.209 23.694C358.813 23.478 358.537 23.178 358.381 22.794C358.165 23.178 357.853 23.478 357.445 23.694C357.037 23.898 356.551 24 355.987 24H354.619C354.499 24 354.439 23.838 354.439 23.514C354.439 23.31 354.457 23.172 354.493 23.1C354.529 23.028 354.571 22.992 354.619 22.992H355.987ZM375.751 20.904C375.751 21.432 375.829 21.846 375.985 22.146C376.141 22.434 376.399 22.65 376.759 22.794C377.119 22.926 377.623 22.992 378.271 22.992H380.305V21.282C380.305 20.298 380.107 19.554 379.711 19.05C379.315 18.534 378.727 18.276 377.947 18.276C377.299 18.276 376.771 18.522 376.363 19.014C375.955 19.494 375.751 20.124 375.751 20.904ZM383.185 22.992C383.305 22.992 383.365 23.166 383.365 23.514C383.365 23.838 383.305 24 383.185 24H381.259C381.175 25.38 380.713 26.466 379.873 27.258C379.045 28.05 377.959 28.446 376.615 28.446H374.581L374.455 27.456H376.561C377.689 27.456 378.589 27.144 379.261 26.52C379.945 25.896 380.293 25.056 380.305 24H378.181C376.981 24 376.111 23.76 375.571 23.28C375.043 22.8 374.779 22.038 374.779 20.994C374.779 20.274 374.917 19.632 375.193 19.068C375.469 18.504 375.853 18.072 376.345 17.772C376.849 17.46 377.413 17.304 378.037 17.304C379.045 17.304 379.837 17.646 380.413 18.33C381.001 19.002 381.295 19.92 381.295 21.084V22.992H383.185ZM387.297 21.372C387.297 22.188 387.045 22.83 386.541 23.298C386.037 23.766 385.383 24 384.579 24H382.653C382.533 24 382.473 23.838 382.473 23.514C382.473 23.31 382.491 23.172 382.527 23.1C382.563 23.028 382.605 22.992 382.653 22.992H384.579C385.107 22.992 385.527 22.854 385.839 22.578C386.163 22.302 386.325 21.912 386.325 21.408V18.474H387.297V21.372ZM383.319 27.636V26.502H384.867V27.636H383.319ZM392.127 23.568C392.127 24.576 391.929 25.446 391.533 26.178C391.137 26.922 390.591 27.486 389.895 27.87C389.211 28.254 388.425 28.446 387.537 28.446H387.051L386.943 27.456H387.465C388.617 27.456 389.517 27.108 390.165 26.412C390.825 25.728 391.155 24.78 391.155 23.568V18.474H392.127V23.568ZM395.875 20.904C395.875 21.432 395.953 21.846 396.109 22.146C396.265 22.434 396.523 22.65 396.883 22.794C397.243 22.926 397.747 22.992 398.395 22.992H400.429V21.282C400.429 20.298 400.231 19.554 399.835 19.05C399.439 18.534 398.851 18.276 398.071 18.276C397.423 18.276 396.895 18.522 396.487 19.014C396.079 19.494 395.875 20.124 395.875 20.904ZM403.309 22.992C403.429 22.992 403.489 23.166 403.489 23.514C403.489 23.838 403.429 24 403.309 24H401.383C401.299 25.38 400.837 26.466 399.997 27.258C399.169 28.05 398.083 28.446 396.739 28.446H394.705L394.579 27.456H396.685C397.813 27.456 398.713 27.144 399.385 26.52C400.069 25.896 400.417 25.056 400.429 24H398.305C397.105 24 396.235 23.76 395.695 23.28C395.167 22.8 394.903 22.038 394.903 20.994C394.903 20.274 395.041 19.632 395.317 19.068C395.593 18.504 395.977 18.072 396.469 17.772C396.973 17.46 397.537 17.304 398.161 17.304C399.169 17.304 399.961 17.646 400.537 18.33C401.125 19.002 401.419 19.92 401.419 21.084V22.992H403.309ZM407.421 21.372C407.421 22.188 407.169 22.83 406.665 23.298C406.161 23.766 405.507 24 404.703 24H402.777C402.657 24 402.597 23.838 402.597 23.514C402.597 23.31 402.615 23.172 402.651 23.1C402.687 23.028 402.729 22.992 402.777 22.992H404.703C405.231 22.992 405.651 22.854 405.963 22.578C406.287 22.302 406.449 21.912 406.449 21.408V18.474H407.421V21.372ZM405.729 16.17V15.18H408.069V16.17H405.729ZM403.569 16.17V15.18H405.909V16.17H403.569Z" fill="#3E4151"/>
<path d="M179.108 22.992C179.624 22.992 180.038 22.848 180.35 22.56C180.674 22.272 180.836 21.894 180.836 21.426V18.474H181.826V21.39C181.826 22.194 181.574 22.83 181.07 23.298C180.566 23.766 179.912 24 179.108 24H172.358C171.326 24 170.552 23.73 170.036 23.19C169.532 22.638 169.28 21.912 169.28 21.012V18.474H170.27V20.868C170.27 21.54 170.444 22.062 170.792 22.434C171.14 22.806 171.692 22.992 172.448 22.992H179.108ZM175.436 16.746V15.756H177.776V16.746H175.436ZM173.276 16.746V15.756H175.616V16.746H173.276ZM186.662 21.426C186.662 21.906 186.812 22.29 187.112 22.578C187.424 22.854 187.85 22.992 188.39 22.992H188.588C188.708 22.992 188.768 23.166 188.768 23.514C188.768 23.838 188.708 24 188.588 24H188.39C188.018 24 187.67 23.928 187.346 23.784C187.022 23.64 186.794 23.454 186.662 23.226V23.622C186.65 24.618 186.446 25.476 186.05 26.196C185.654 26.928 185.108 27.486 184.412 27.87C183.728 28.254 182.948 28.446 182.072 28.446H180.956L180.848 27.456H182C183.152 27.456 184.052 27.108 184.7 26.412C185.36 25.728 185.69 24.78 185.69 23.568V18.474H186.662V21.426ZM191.5 22.992C192.076 22.992 192.532 22.848 192.868 22.56C193.204 22.272 193.372 21.888 193.372 21.408V18.474H194.344V21.39C194.344 21.906 194.494 22.302 194.794 22.578C195.094 22.854 195.526 22.992 196.09 22.992H196.414C196.534 22.992 196.594 23.16 196.594 23.496C196.594 23.832 196.534 24 196.414 24H196.072C195.496 24 195.016 23.904 194.632 23.712C194.26 23.508 193.996 23.208 193.84 22.812C193.624 23.208 193.312 23.508 192.904 23.712C192.508 23.904 192.04 24 191.5 24H188.044C187.924 24 187.864 23.838 187.864 23.514C187.864 23.31 187.882 23.172 187.918 23.1C187.954 23.028 187.996 22.992 188.044 22.992H191.5ZM189.574 29.706V28.662H190.834V29.706H189.574ZM190.114 27.492V26.502H192.454V27.492H190.114ZM187.954 27.492V26.502H190.294V27.492H187.954ZM197.239 22.992C197.851 22.992 198.325 22.848 198.661 22.56C199.009 22.26 199.183 21.864 199.183 21.372V18.474H200.173V21.372C200.173 21.888 200.323 22.29 200.623 22.578C200.935 22.854 201.385 22.992 201.973 22.992C202.585 22.992 203.059 22.848 203.395 22.56C203.743 22.26 203.917 21.864 203.917 21.372V18.474H204.889V21.372C204.889 21.888 205.039 22.29 205.339 22.578C205.639 22.854 206.065 22.992 206.617 22.992C207.169 22.992 207.601 22.854 207.913 22.578C208.237 22.29 208.399 21.888 208.399 21.372V18.474H209.371V21.3C209.371 22.14 209.119 22.8 208.615 23.28C208.111 23.76 207.445 24 206.617 24C206.041 24 205.561 23.898 205.177 23.694C204.793 23.478 204.517 23.178 204.349 22.794C204.145 23.178 203.833 23.478 203.413 23.694C203.005 23.898 202.525 24 201.973 24C201.361 24 200.857 23.898 200.461 23.694C200.065 23.478 199.789 23.178 199.633 22.794C199.417 23.178 199.105 23.478 198.697 23.694C198.289 23.898 197.803 24 197.239 24H195.871C195.751 24 195.691 23.838 195.691 23.514C195.691 23.31 195.709 23.172 195.745 23.1C195.781 23.028 195.823 22.992 195.871 22.992H197.239ZM212.194 12.318H213.184V24H212.194V12.318ZM232.248 9.708L232.482 10.392L226.506 12.912V12.138L232.248 9.708ZM222.942 24C221.91 24 221.136 23.73 220.62 23.19C220.116 22.638 219.864 21.912 219.864 21.012V18.474H220.854V20.868C220.854 21.54 221.028 22.062 221.376 22.434C221.724 22.806 222.276 22.992 223.032 22.992H229.764C230.376 22.992 230.856 22.86 231.204 22.596C231.552 22.332 231.726 21.984 231.726 21.552C231.726 21.288 231.66 21.018 231.528 20.742C231.396 20.454 231.186 20.16 230.898 19.86L226.47 15.396V14.514L232.896 11.904L233.202 12.858L227.568 15.126L231.6 19.176C232.8 20.388 233.682 21.252 234.246 21.768C234.822 22.284 235.26 22.62 235.56 22.776C235.872 22.92 236.22 22.992 236.604 22.992C236.724 22.992 236.784 23.166 236.784 23.514C236.784 23.838 236.724 24 236.604 24C236.148 24 235.758 23.946 235.434 23.838C235.122 23.73 234.756 23.508 234.336 23.172C233.916 22.824 233.328 22.272 232.572 21.516C232.62 21.96 232.542 22.374 232.338 22.758C232.146 23.142 231.828 23.448 231.384 23.676C230.94 23.892 230.4 24 229.764 24H222.942ZM238.217 22.992C238.793 22.992 239.249 22.848 239.585 22.56C239.921 22.272 240.089 21.888 240.089 21.408V18.474H241.061V21.39C241.061 21.906 241.211 22.302 241.511 22.578C241.811 22.854 242.243 22.992 242.807 22.992H243.131C243.251 22.992 243.311 23.16 243.311 23.496C243.311 23.832 243.251 24 243.131 24H242.771C242.207 24 241.733 23.904 241.349 23.712C240.977 23.508 240.707 23.208 240.539 22.812C240.335 23.208 240.029 23.508 239.621 23.712C239.225 23.904 238.757 24 238.217 24H236.057C235.937 24 235.877 23.838 235.877 23.514C235.877 23.31 235.895 23.172 235.931 23.1C235.967 23.028 236.009 22.992 236.057 22.992H238.217ZM239.351 16.17V15.036H240.899V16.17H239.351ZM246.867 22.992C247.383 22.992 247.797 22.854 248.109 22.578C248.433 22.302 248.595 21.912 248.595 21.408V18.474H249.585V21.372C249.585 22.188 249.333 22.83 248.829 23.298C248.325 23.766 247.671 24 246.867 24H242.583C242.463 24 242.403 23.838 242.403 23.514C242.403 23.31 242.421 23.172 242.457 23.1C242.493 23.028 242.535 22.992 242.583 22.992H246.867ZM244.923 27.492V26.502H247.263V27.492H244.923ZM242.763 27.492V26.502H245.103V27.492H242.763ZM254.412 23.568C254.412 24.576 254.214 25.446 253.818 26.178C253.422 26.922 252.876 27.486 252.18 27.87C251.496 28.254 250.71 28.446 249.822 28.446H249.336L249.228 27.456H249.75C250.902 27.456 251.802 27.108 252.45 26.412C253.11 25.728 253.44 24.78 253.44 23.568V18.474H254.412V23.568Z" fill="#3E4151"/>
<path d="M35.5124 21.174C35.5124 20.706 35.5964 20.25 35.7644 19.806C35.9324 19.35 36.2144 18.858 36.6104 18.33C37.0184 17.79 37.5764 17.166 38.2844 16.458L37.4744 15.63L38.1584 14.892C39.3704 16.092 40.2644 17.034 40.8404 17.718C41.4284 18.39 41.8304 18.972 42.0464 19.464C42.2624 19.944 42.3704 20.454 42.3704 20.994C42.3704 21.594 42.2204 22.14 41.9204 22.632C41.6204 23.112 41.2004 23.49 40.6604 23.766C40.1204 24.042 39.5084 24.18 38.8244 24.18C37.8524 24.18 37.0544 23.904 36.4304 23.352C35.8184 22.788 35.5124 22.062 35.5124 21.174ZM41.3984 20.994C41.3984 20.61 41.3204 20.238 41.1644 19.878C41.0204 19.518 40.7744 19.122 40.4264 18.69C40.0784 18.246 39.5864 17.718 38.9504 17.106C38.0264 18.018 37.3844 18.768 37.0244 19.356C36.6764 19.932 36.5024 20.508 36.5024 21.084C36.5024 21.708 36.7184 22.212 37.1504 22.596C37.5824 22.98 38.1524 23.172 38.8604 23.172C39.3284 23.172 39.7544 23.076 40.1384 22.884C40.5344 22.692 40.8404 22.434 41.0564 22.11C41.2844 21.774 41.3984 21.402 41.3984 20.994ZM47.2166 21.426C47.2166 21.906 47.3666 22.29 47.6666 22.578C47.9786 22.854 48.4046 22.992 48.9446 22.992H49.1426C49.2626 22.992 49.3226 23.166 49.3226 23.514C49.3226 23.838 49.2626 24 49.1426 24H48.9446C48.5726 24 48.2246 23.928 47.9006 23.784C47.5766 23.64 47.3486 23.454 47.2166 23.226V23.622C47.2046 24.618 47.0006 25.476 46.6046 26.196C46.2086 26.928 45.6626 27.486 44.9666 27.87C44.2826 28.254 43.5026 28.446 42.6266 28.446H41.5106L41.4026 27.456H42.5546C43.7066 27.456 44.6066 27.108 45.2546 26.412C45.9146 25.728 46.2446 24.78 46.2446 23.568V18.474H47.2166V21.426ZM59.7944 22.992C59.8424 22.992 59.8844 23.028 59.9204 23.1C59.9564 23.172 59.9744 23.31 59.9744 23.514C59.9744 23.706 59.9564 23.838 59.9204 23.91C59.8844 23.97 59.8424 24 59.7944 24C59.1464 24 58.6244 24.054 58.2284 24.162C57.8324 24.27 57.5024 24.45 57.2384 24.702C56.9744 24.954 56.7164 25.326 56.4644 25.818L55.1864 28.32H54.6464C53.3504 28.32 52.3364 27.966 51.6044 27.258C50.8724 26.562 50.5064 25.56 50.5064 24.252V24H48.5984C48.4784 24 48.4184 23.838 48.4184 23.514C48.4184 23.31 48.4364 23.172 48.4724 23.1C48.5084 23.028 48.5504 22.992 48.5984 22.992H50.5064V20.706C50.5064 19.518 50.7884 18.582 51.3524 17.898C51.9284 17.214 52.7144 16.872 53.7104 16.872C54.6584 16.872 55.4024 17.148 55.9424 17.7C56.4944 18.252 56.7704 19.002 56.7704 19.95C56.7704 20.718 56.5484 21.408 56.1044 22.02C55.6604 22.62 55.0364 23.094 54.2324 23.442C53.4284 23.79 52.5104 23.97 51.4784 23.982V24.216C51.4784 25.26 51.7484 26.04 52.2884 26.556C52.8284 27.084 53.6144 27.348 54.6464 27.348L55.6724 25.296C55.9844 24.684 56.3084 24.216 56.6444 23.892C56.9924 23.568 57.4064 23.34 57.8864 23.208C58.3784 23.064 59.0144 22.992 59.7944 22.992ZM55.7984 20.04C55.7984 19.344 55.6124 18.81 55.2404 18.438C54.8684 18.054 54.3464 17.862 53.6744 17.862C52.9664 17.862 52.4204 18.108 52.0364 18.6C51.6644 19.092 51.4784 19.794 51.4784 20.706V22.992C52.3544 22.992 53.1164 22.872 53.7644 22.632C54.4124 22.392 54.9104 22.05 55.2584 21.606C55.6184 21.15 55.7984 20.628 55.7984 20.04ZM59.6336 22.992C60.1256 22.992 60.5036 22.878 60.7676 22.65C61.0316 22.422 61.1636 22.086 61.1636 21.642V20.778C61.1636 19.626 61.4456 18.732 62.0096 18.096C62.5736 17.448 63.3656 17.124 64.3856 17.124C65.4176 17.124 66.2036 17.424 66.7436 18.024C67.2956 18.624 67.5716 19.494 67.5716 20.634C67.5716 21.702 67.2836 22.53 66.7076 23.118C66.1436 23.706 65.3636 24 64.3676 24C63.7316 24 63.1976 23.892 62.7656 23.676C62.3336 23.46 61.9976 23.136 61.7576 22.704C61.5896 23.16 61.3376 23.49 61.0016 23.694C60.6656 23.898 60.2096 24 59.6336 24H59.2556C59.1356 24 59.0756 23.838 59.0756 23.514C59.0756 23.31 59.0936 23.172 59.1296 23.1C59.1656 23.028 59.2076 22.992 59.2556 22.992H59.6336ZM66.5816 20.634C66.5816 19.794 66.4016 19.164 66.0416 18.744C65.6816 18.312 65.1236 18.096 64.3676 18.096C63.6116 18.096 63.0476 18.318 62.6756 18.762C62.3156 19.206 62.1356 19.878 62.1356 20.778C62.1356 21.45 62.3336 21.99 62.7296 22.398C63.1256 22.794 63.6716 22.992 64.3676 22.992C65.0876 22.992 65.6336 22.794 66.0056 22.398C66.3896 22.002 66.5816 21.414 66.5816 20.634ZM80.7282 23.55C80.7282 24.534 80.5302 25.398 80.1342 26.142C79.7502 26.886 79.2042 27.456 78.4962 27.852C77.8002 28.248 76.9842 28.446 76.0482 28.446H74.0142L73.8882 27.456H75.9942C77.1222 27.456 78.0222 27.144 78.6942 26.52C79.3782 25.896 79.7262 25.056 79.7382 24H77.6142C76.4142 24 75.5442 23.76 75.0042 23.28C74.4762 22.8 74.2122 22.038 74.2122 20.994C74.2122 20.274 74.3502 19.632 74.6262 19.068C74.9022 18.504 75.2862 18.072 75.7782 17.772C76.2822 17.46 76.8462 17.304 77.4702 17.304C78.4782 17.304 79.2702 17.646 79.8462 18.33C80.4342 19.002 80.7282 19.92 80.7282 21.084V23.55ZM75.1842 20.904C75.1842 21.432 75.2622 21.846 75.4182 22.146C75.5742 22.434 75.8322 22.65 76.1922 22.794C76.5522 22.926 77.0562 22.992 77.7042 22.992H79.7382V21.282C79.7382 20.298 79.5402 19.554 79.1442 19.05C78.7482 18.534 78.1602 18.276 77.3802 18.276C76.7322 18.276 76.2042 18.522 75.7962 19.014C75.3882 19.494 75.1842 20.124 75.1842 20.904ZM91.5465 27.654V26.772H92.6625V27.654H91.5465ZM92.0145 25.692V24.846H94.1925V25.692H92.0145ZM90.0165 25.692V24.846H92.1945V25.692H90.0165ZM94.0845 21.174C94.2525 21.654 94.4265 22.026 94.6065 22.29C94.7985 22.554 95.0205 22.74 95.2725 22.848C95.5245 22.944 95.8365 22.992 96.2085 22.992H97.4865C97.6065 22.992 97.6665 23.166 97.6665 23.514C97.6665 23.718 97.6485 23.85 97.6125 23.91C97.5765 23.97 97.5345 24 97.4865 24H96.1905C95.6745 24 95.2485 23.928 94.9125 23.784C94.5765 23.64 94.2825 23.394 94.0305 23.046C93.7785 22.698 93.5385 22.206 93.3105 21.57L91.5105 22.416C90.2865 22.992 89.4285 23.586 88.9365 24.198C88.4565 24.81 88.2165 25.542 88.2165 26.394C88.2165 27.39 88.5225 28.116 89.1345 28.572C89.7585 29.04 90.7605 29.274 92.1405 29.274H95.9025L95.7945 30.282H92.0505C90.4065 30.282 89.1885 29.964 88.3965 29.328C87.6165 28.692 87.2265 27.756 87.2265 26.52C87.2265 25.452 87.5265 24.528 88.1265 23.748C88.7265 22.956 89.7165 22.236 91.0965 21.588L94.8045 19.878C94.6365 19.35 94.4565 18.942 94.2645 18.654C94.0725 18.366 93.8265 18.162 93.5265 18.042C93.2265 17.922 92.8185 17.862 92.3025 17.862H88.1085L88.2525 16.854H92.4645C93.1605 16.854 93.7245 16.962 94.1565 17.178C94.6005 17.382 94.9605 17.736 95.2365 18.24C95.5245 18.732 95.7645 19.422 95.9565 20.31L94.0845 21.174ZM100.406 22.992C100.982 22.992 101.438 22.848 101.774 22.56C102.11 22.272 102.278 21.888 102.278 21.408V18.474H103.25V21.39C103.25 21.906 103.4 22.302 103.7 22.578C104 22.854 104.432 22.992 104.996 22.992H105.32C105.44 22.992 105.5 23.16 105.5 23.496C105.5 23.832 105.44 24 105.32 24H104.978C104.402 24 103.922 23.904 103.538 23.712C103.166 23.508 102.902 23.208 102.746 22.812C102.53 23.208 102.218 23.508 101.81 23.712C101.414 23.904 100.946 24 100.406 24H96.9502C96.8302 24 96.7702 23.838 96.7702 23.514C96.7702 23.31 96.7882 23.172 96.8242 23.1C96.8602 23.028 96.9022 22.992 96.9502 22.992H100.406ZM99.0202 27.492V26.502H101.36V27.492H99.0202ZM96.8602 27.492V26.502H99.2002V27.492H96.8602ZM109.421 21.372C109.421 22.188 109.169 22.83 108.665 23.298C108.161 23.766 107.507 24 106.703 24H104.777C104.657 24 104.597 23.838 104.597 23.514C104.597 23.31 104.615 23.172 104.651 23.1C104.687 23.028 104.729 22.992 104.777 22.992H106.703C107.231 22.992 107.651 22.854 107.963 22.578C108.287 22.302 108.449 21.912 108.449 21.408V18.474H109.421V21.372ZM105.587 29.706V28.662H106.847V29.706H105.587ZM106.127 27.492V26.502H108.467V27.492H106.127ZM103.967 27.492V26.502H106.307V27.492H103.967Z" fill="#3E4151"/>
<path d="M125 20H153" stroke="#8B929A" stroke-opacity="0.21" stroke-linecap="round"/>
<path d="M270 20H298" stroke="#8B929A" stroke-opacity="0.21" stroke-linecap="round"/>
<path d="M423 20H451" stroke="#8B929A" stroke-opacity="0.21" stroke-linecap="round"/>
</svg>
